<svg width="40" height="40" viewBox="0 0 40 40" fill="none" xmlns="http://www.w3.org/2000/svg">
    <rect width="40" height="40" rx="20" fill="#FAE7CC" />
    <path
        d="M14 14C14.5312 14 15 14.4688 15 15C15 15.5625 14.5312 16 14 16C13.4375 16 13 15.5625 13 15C13 14.4688 13.4375 14 14 14ZM17.5 14.5H27.5C27.75 14.5 28 14.75 28 15C28 15.2812 27.75 15.5 27.5 15.5H17.5C17.2188 15.5 17 15.2812 17 15C17 14.75 17.2188 14.5 17.5 14.5ZM17.5 19.5H27.5C27.75 19.5 28 19.75 28 20C28 20.2812 27.75 20.5 27.5 20.5H17.5C17.2188 20.5 17 20.2812 17 20C17 19.75 17.2188 19.5 17.5 19.5ZM17.5 24.5H27.5C27.75 24.5 28 24.75 28 25C28 25.2812 27.75 25.5 27.5 25.5H17.5C17.2188 25.5 17 25.2812 17 25C17 24.75 17.2188 24.5 17.5 24.5ZM15 20C15 20.5625 14.5312 21 14 21C13.4375 21 13 20.5625 13 20C13 19.4688 13.4375 19 14 19C14.5312 19 15 19.4688 15 20ZM14 24C14.5312 24 15 24.4688 15 25C15 25.5625 14.5312 26 14 26C13.4375 26 13 25.5625 13 25C13 24.4688 13.4375 24 14 24Z"
        fill="#E68A00" />
</svg>
    